<svg version="1.1" xmlns="http://www.w3.org/2000/svg" xmlns:xlink="http://www.w3.org/1999/xlink" width="131" height="28"><defs/><g><path fill="rgb(178,39,37)" stroke="none" paint-order="stroke fill markers" fill-rule="evenodd" d=" M 54.38503921031952 11.206616044044495 C 54.38503921031952 11.206616044044495 57.32906776666641 3.1123425364494324 57.32906776666641 3.1123425364494324 C 57.50300455093384 2.634366273880005 57.43190258741379 2.1006712913513184 57.140706956386566 1.6829314827919006 C 56.84849315881729 1.266396403312683 56.371142745018005 1.0182222127914429 55.86172008514404 1.0182222127914429 C 55.86172008514404 1.0182222127914429 51.26300120353699 1.0182222127914429 51.26300120353699 1.0182222127914429 C 50.55910873413086 1.0182222127914429 49.94277858734131 1.4886689186096191 49.7576419711113 2.1678349375724792 C 49.7576419711113 2.1678349375724792 47.9422510266304 9.010997295379639 47.9422510266304 9.010997295379639 C 47.9422510266304 9.010997295379639 46.58096235990524 9.010997295379639 46.58096235990524 9.010997295379639 C 46.58096235990524 9.010997295379639 46.58096235990524 2.579551100730896 46.58096235990524 2.579551100730896 C 46.58096235990524 1.716663897037506 45.88114255666733 1.0182222127914429 45.018925189971924 1.0182222127914429 C 45.018925189971924 1.0182222127914429 41.11680191755295 1.0182222127914429 41.11680191755295 1.0182222127914429 C 40.254584550857544 1.0182222127914429 39.554934442043304 1.716663897037506 39.554934442043304 2.579551100730896 C 39.554934442043304 2.579551100730896 39.554934442043304 9.010997295379639 39.554934442043304 9.010997295379639 C 39.554934442043304 9.010997295379639 38.022593796253204 9.010997295379639 38.022593796253204 9.010997295379639 C 38.022593796253204 9.010997295379639 35.55913984775543 2.0452537536621094 35.55913984775543 2.0452537536621094 C 35.33497351408005 1.4284324645996094 34.74732172489166 1.0182222127914429 34.09077399969101 1.0182222127914429 C 34.09077399969101 1.0182222127914429 29.539569556713104 1.0182222127914429 29.539569556713104 1.0182222127914429 C 29.008426010608673 1.0182222127914429 28.51461523771286 1.2874791622161865 28.226474106311798 1.7338312864303589 C 27.93935114145279 2.1804845929145813 27.89828509092331 2.7415871620178223 28.11837875843048 3.2246835231781006 C 28.11837875843048 3.2246835231781006 31.75085759162903 11.215049147605896 31.75085759162903 11.215049147605896 C 31.75085759162903 11.215049147605896 28.082403540611267 20.751684546470642 28.082403540611267 20.751684546470642 C 27.89709722995758 21.23086553812027 27.96209019422531 21.770885348320007 28.25226765871048 22.195853531360626 C 28.54431176185608 22.619616985321045 29.025904536247253 22.872911274433136 29.539569556713104 22.872911274433136 C 29.539569556713104 22.872911274433136 34.09077399969101 22.872911274433136 34.09077399969101 22.872911274433136 C 34.77718794345856 22.872911274433136 35.38231825828552 22.425956785678864 35.58391523361206 21.770584166049957 C 35.58391523361206 21.770584166049957 37.64604187011719 14.94278210401535 37.64604187011719 14.94278210401535 C 37.64604187011719 14.94278210401535 39.554934442043304 14.94278210401535 39.554934442043304 14.94278210401535 C 39.554934442043304 14.94278210401535 39.554934442043304 21.312184751033783 39.554934442043304 21.312184751033783 C 39.554934442043304 22.173867225646973 40.254584550857544 22.872911274433136 41.11680191755295 22.872911274433136 C 41.11680191755295 22.872911274433136 45.018925189971924 22.872911274433136 45.018925189971924 22.872911274433136 C 45.88114255666733 22.872911274433136 46.58096235990524 22.173867225646973 46.58096235990524 21.312184751033783 C 46.58096235990524 21.312184751033783 46.58096235990524 14.94278210401535 46.58096235990524 14.94278210401535 C 46.58096235990524 14.94278210401535 48.22021049261093 14.94278210401535 48.22021049261093 14.94278210401535 C 48.22021049261093 14.94278210401535 49.742199778556824 21.66215854883194 49.742199778556824 21.66215854883194 C 49.905615508556366 22.371141612529755 50.53653937578201 22.872911274433136 51.26300120353699 22.872911274433136 C 51.26300120353699 22.872911274433136 55.86172008514404 22.872911274433136 55.86172008514404 22.872911274433136 C 56.35654902458191 22.872911274433136 56.82269960641861 22.637687921524048 57.11711943149567 22.238320231437683 C 57.41136956214905 21.84075963497162 57.498931884765625 21.326340317726135 57.35265529155731 20.85318297147751 C 57.35265529155731 20.85318297147751 54.38503921031952 11.206616044044495 54.38503921031952 11.206616044044495 Z M 81.05404514074326 1.8624361157417297 C 81.0447119474411 1.845569908618927 81.03028792142868 1.832920253276825 81.0211244225502 1.8163552284240723 C 80.96767067909241 1.722386360168457 80.90793824195862 1.635344684123993 80.83683627843857 1.55523020029068 C 80.82037591934204 1.536556899547577 80.80713975429535 1.5166788697242737 80.7894915342331 1.4983067512512207 C 80.70311707258224 1.4091567993164062 80.60537308454514 1.3299458622932434 80.50050193071365 1.2627822160720825 C 80.47572654485703 1.24742192029953 80.44891482591629 1.2359769940376282 80.42430913448334 1.2215202450752258 C 80.3357286453247 1.1721263527870178 80.24528151750565 1.1329726576805115 80.14940416812897 1.1010473370552063 C 80.11546528339386 1.0908071398735046 80.08458089828491 1.0796633958816528 80.05081170797348 1.0709291100502014 C 79.92727416753769 1.0393049716949463 79.80068212747574 1.0182222127914429 79.66696292161942 1.0182222127914429 C 79.66696292161942 1.0182222127914429 75.76483964920044 1.0182222127914429 75.76483964920044 1.0182222127914429 C 75.64452630281448 1.0182222127914429 75.5293037891388 1.0344860553741455 75.41713577508926 1.0600865483283997 C 75.38506352901459 1.067917287349701 75.35316097736359 1.0799645781517029 75.32142812013626 1.0896024107933044 C 75.24319899082184 1.1127934455871582 75.16700619459152 1.1395986676216125 75.09301942586899 1.1748369932174683 C 75.05789268016815 1.192004382610321 75.02293562889099 1.2115812301635742 74.98899674415588 1.2308568954467773 C 74.92417347431183 1.2694082260131836 74.86138653755188 1.3112725615501404 74.80267226696014 1.358256995677948 C 74.77093940973282 1.382652759552002 74.73903685808182 1.407349705696106 74.7100191116333 1.4347572922706604 C 74.64536553621292 1.4949937462806702 74.58766943216324 1.5594467520713806 74.53404599428177 1.629622220993042 C 74.51979166269302 1.6461872458457947 74.50316160917282 1.6591380834579468 74.49094361066818 1.6766066551208496 C 74.49094361066818 1.6766066551208496 68.04204642772675 10.780744314193726 68.04204642772675 10.780744314193726 C 68.04204642772675 10.780744314193726 67.95991432666779 10.780744314193726 67.95991432666779 10.780744314193726 C 67.95991432666779 10.780744314193726 67.95991432666779 2.579551100730896 67.95991432666779 2.579551100730896 C 67.95991432666779 1.716663897037506 67.25890666246414 1.0182222127914429 66.39770746231079 1.0182222127914429 C 66.39770746231079 1.0182222127914429 62.49473571777344 1.0182222127914429 62.49473571777344 1.0182222127914429 C 61.63336682319641 1.0182222127914429 60.934734880924225 1.716663897037506 60.934734880924225 2.579551100730896 C 60.934734880924225 2.579551100730896 60.934734880924225 21.312184751033783 60.934734880924225 21.312184751033783 C 60.934734880924225 21.555238842964172 60.994467318058014 21.78263145685196 61.09526580572128 21.989543676376343 C 61.1013748049736 22.002193331718445 61.103580832481384 22.015746533870697 61.10952013731003 22.0283961892128 C 61.11783516407013 22.04435884952545 61.13225919008255 22.058213233947754 61.14057421684265 22.073874711990356 C 61.194027960300446 22.16814476251602 61.25579673051834 22.254885256290436 61.32571083307266 22.3359032869339 C 61.34217119216919 22.354576587677002 61.35540735721588 22.375056982040405 61.372037410736084 22.392224371433258 C 61.459430038928986 22.482579052448273 61.55734372138977 22.559982895851135 61.66221487522125 22.627447724342346 C 61.68597209453583 22.643410384655 61.71363228559494 22.65455412864685 61.73942583799362 22.669312059879303 C 61.82681846618652 22.71720004081726 61.91743528842926 22.756956100463867 62.01314294338226 22.788580238819122 C 62.04708182811737 22.799723982810974 62.07898437976837 22.810566544532776 62.11088693141937 22.818698465824127 C 62.23544263839722 22.851527333259583 62.36186498403549 22.872911274433136 62.49473571777344 22.872911274433136 C 62.49473571777344 22.872911274433136 66.39770746231079 22.872911274433136 66.39770746231079 22.872911274433136 C 66.51819050312042 22.872911274433136 66.63341301679611 22.856045067310333 66.74558103084564 22.83044457435608 C 66.7785017490387 22.823517382144928 66.80938613414764 22.810566544532776 66.84128868579865 22.801229894161224 C 66.91951781511307 22.77773767709732 66.99554091691971 22.750932455062866 67.06867921352386 22.71569412946701 C 67.10465443134308 22.698827922344208 67.13859331607819 22.679251074790955 67.1725322008133 22.65877068042755 C 67.2383736371994 22.621122896671295 67.30116057395935 22.57865619659424 67.36089301109314 22.53257530927658 C 67.39177739620209 22.507275998592377 67.42266178131104 22.483783781528473 67.45252799987793 22.45697855949402 C 67.51633310317993 22.39674210548401 67.57487767934799 22.330482006072998 67.62850111722946 22.261210083961487 C 67.64173728227615 22.244645059108734 67.65938550233841 22.231393039226532 67.67177319526672 22.21392446756363 C 67.67177319526672 22.21392446756363 74.11235535144806 13.120629370212555 74.11235535144806 13.120629370212555 C 74.11235535144806 13.120629370212555 74.20280247926712 13.120629370212555 74.20280247926712 13.120629370212555 C 74.20280247926712 13.120629370212555 74.20280247926712 21.312184751033783 74.20280247926712 21.312184751033783 C 74.20280247926712 22.173867225646973 74.90262228250504 22.872911274433136 75.76483964920044 22.872911274433136 C 75.76483964920044 22.872911274433136 79.66696292161942 22.872911274433136 79.66696292161942 22.872911274433136 C 80.52918028831482 22.872911274433136 81.22798192501068 22.173867225646973 81.22798192501068 21.312184751033783 C 81.22798192501068 21.312184751033783 81.22798192501068 2.579551100730896 81.22798192501068 2.579551100730896 C 81.22798192501068 2.3349910974502563 81.16723132133484 2.1069961190223694 81.06728130578995 1.901589810848236 C 81.06032383441925 1.888638973236084 81.06032383441925 1.8747845888137817 81.05404514074326 1.8624361157417297 Z M 103.08207827806473 1.0182222127914429 C 103.08207827806473 1.0182222127914429 99.17995500564575 1.0182222127914429 99.17995500564575 1.0182222127914429 C 98.31773763895035 1.0182222127914429 97.61910569667816 1.716663897037506 97.61910569667816 2.579551100730896 C 97.61910569667816 2.579551100730896 97.61910569667816 8.948050200939178 97.61910569667816 8.948050200939178 C 97.61910569667816 8.948050200939178 92.15494525432587 8.948050200939178 92.15494525432587 8.948050200939178 C 92.15494525432587 8.948050200939178 92.15494525432587 2.579551100730896 92.15494525432587 2.579551100730896 C 92.15494525432587 1.716663897037506 91.45631331205368 1.0182222127914429 90.59511411190033 1.0182222127914429 C 90.59511411190033 1.0182222127914429 86.69095450639725 1.0182222127914429 86.69095450639725 1.0182222127914429 C 85.82958561182022 1.0182222127914429 85.12993550300598 1.716663897037506 85.12993550300598 2.579551100730896 C 85.12993550300598 2.579551100730896 85.12993550300598 21.312184751033783 85.12993550300598 21.312184751033783 C 85.12993550300598 22.173867225646973 85.82958561182022 22.872911274433136 86.69095450639725 22.872911274433136 C 86.69095450639725 22.872911274433136 90.59511411190033 22.872911274433136 90.59511411190033 22.872911274433136 C 91.45631331205368 22.872911274433136 92.15494525432587 22.173867225646973 92.15494525432587 21.312184751033783 C 92.15494525432587 21.312184751033783 92.15494525432587 14.94278210401535 92.15494525432587 14.94278210401535 C 92.15494525432587 14.94278210401535 97.61910569667816 14.94278210401535 97.61910569667816 14.94278210401535 C 97.61910569667816 14.94278210401535 97.61910569667816 21.312184751033783 97.61910569667816 21.312184751033783 C 97.61910569667816 22.173867225646973 98.31773763895035 22.872911274433136 99.17995500564575 22.872911274433136 C 99.17995500564575 22.872911274433136 103.08207827806473 22.872911274433136 103.08207827806473 22.872911274433136 C 103.94446533918381 22.872911274433136 104.64326697587967 22.173867225646973 104.64326697587967 21.312184751033783 C 104.64326697587967 21.312184751033783 104.64326697587967 2.579551100730896 104.64326697587967 2.579551100730896 C 104.64326697587967 1.716663897037506 103.94446533918381 1.0182222127914429 103.08207827806473 1.0182222127914429 Z M 23.541380763053894 16.628198087215424 C 23.541380763053894 16.628198087215424 23.541380763053894 2.579551100730896 23.541380763053894 2.579551100730896 C 23.541380763053894 1.716663897037506 22.843597292900085 1.0182222127914429 21.98137992620468 1.0182222127914429 C 21.98137992620468 1.0182222127914429 7.931190729141235 1.0182222127914429 7.931190729141235 1.0182222127914429 C 7.069821834564209 1.0182222127914429 6.3701717257499695 1.716663897037506 6.3701717257499695 2.579551100730896 C 6.3701717257499695 2.579551100730896 4.029237151145935 16.628198087215424 4.029237151145935 16.628198087215424 C 4.029237151145935 16.628198087215424 2.56171977519989 16.628198087215424 2.56171977519989 16.628198087215424 C 1.699502408504486 16.628198087215424 1.0007007718086243 17.327844500541687 1.0007007718086243 18.189225792884827 C 1.0007007718086243 18.189225792884827 1.0007007718086243 25.4338641166687 1.0007007718086243 25.4338641166687 C 1.0007007718086243 26.29554659128189 1.699502408504486 26.994891822338104 2.56171977519989 26.994891822338104 C 2.56171977519989 26.994891822338104 6.3701717257499695 26.994891822338104 6.3701717257499695 26.994891822338104 C 7.2323890924453735 26.994891822338104 7.931190729141235 26.29554659128189 7.931190729141235 25.4338641166687 C 7.931190729141235 25.4338641166687 7.931190729141235 22.872911274433136 7.931190729141235 22.872911274433136 C 7.931190729141235 22.872911274433136 18.85934191942215 22.872911274433136 18.85934191942215 22.872911274433136 C 18.85934191942215 22.872911274433136 18.85934191942215 25.4338641166687 18.85934191942215 25.4338641166687 C 18.85934191942215 26.29554659128189 19.557973861694336 26.994891822338104 20.420360922813416 26.994891822338104 C 20.420360922813416 26.994891822338104 23.541380763053894 26.994891822338104 23.541380763053894 26.994891822338104 C 24.404785990715027 26.994891822338104 25.103417932987213 26.29554659128189 25.103417932987213 25.4338641166687 C 25.103417932987213 25.4338641166687 25.103417932987213 18.189225792884827 25.103417932987213 18.189225792884827 C 25.103417932987213 17.327844500541687 24.404785990715027 16.628198087215424 23.541380763053894 16.628198087215424 Z M 17.01747864484787 17.012807846069336 C 17.01747864484787 17.012807846069336 10.676507115364075 17.003471195697784 10.676507115364075 17.003471195697784 C 10.676507115364075 17.003471195697784 12.200532734394073 7.262634217739105 12.200532734394073 7.262634217739105 C 12.200532734394073 7.262634217739105 17.01747864484787 7.262634217739105 17.01747864484787 7.262634217739105 C 17.01747864484787 7.262634217739105 17.01747864484787 17.012807846069336 17.01747864484787 17.012807846069336 Z M 118.69328647851944 1.0022595524787903 C 112.250667989254 1.0022595524787903 107.7507112622261 5.50162148475647 107.7507112622261 11.945114970207214 C 107.7507112622261 18.38770490884781 112.250667989254 22.88827157020569 118.69328647851944 22.88827157020569 C 125.13590496778488 22.88827157020569 129.63586169481277 18.38770490884781 129.63586169481277 11.945114970207214 C 129.63586169481277 5.50162148475647 125.13590496778488 1.0022595524787903 118.69328647851944 1.0022595524787903 Z M 118.69328647851944 16.633920550346375 C 115.71328270435333 16.633920550346375 114.00310230255127 14.924409985542297 114.00310230255127 11.945114970207214 C 114.00310230255127 8.964916408061981 115.71328270435333 7.254803478717804 118.69328647851944 7.254803478717804 C 121.67329025268555 7.254803478717804 123.38364034891129 8.964916408061981 123.38364034891129 11.945114970207214 C 123.38364034891129 14.924409985542297 121.67329025268555 16.633920550346375 118.69328647851944 16.633920550346375 Z"/></g></svg>