<svg version="1.1" xmlns="http://www.w3.org/2000/svg" xmlns:xlink="http://www.w3.org/1999/xlink" width="131" height="28"><defs/><g><path fill="rgb(255,255,255)" stroke="none" paint-order="stroke fill markers" fill-rule="evenodd" d=" M 54.38503921031952 11.206516802310944 C 54.38503921031952 11.206516802310944 57.32906776666641 3.1125444769859314 57.32906776666641 3.1125444769859314 C 57.50300455093384 2.634267032146454 57.43190258741379 2.1005720496177673 57.140706956386566 1.6828322410583496 C 56.84849315881729 1.266297161579132 56.371142745018005 1.0181229710578918 55.86172008514404 1.0181229710578918 C 55.86172008514404 1.0181229710578918 51.26300120353699 1.0181229710578918 51.26300120353699 1.0181229710578918 C 50.55910873413086 1.0181229710578918 49.94277858734131 1.4888708591461182 49.7576419711113 2.1680368781089783 C 49.7576419711113 2.1680368781089783 47.9422510266304 9.011199235916138 47.9422510266304 9.011199235916138 C 47.9422510266304 9.011199235916138 46.58096235990524 9.011199235916138 46.58096235990524 9.011199235916138 C 46.58096235990524 9.011199235916138 46.58096235990524 2.579451858997345 46.58096235990524 2.579451858997345 C 46.58096235990524 1.716564655303955 45.88114255666733 1.0181229710578918 45.018925189971924 1.0181229710578918 C 45.018925189971924 1.0181229710578918 41.11680191755295 1.0181229710578918 41.11680191755295 1.0181229710578918 C 40.254584550857544 1.0181229710578918 39.554934442043304 1.716564655303955 39.554934442043304 2.579451858997345 C 39.554934442043304 2.579451858997345 39.554934442043304 9.011199235916138 39.554934442043304 9.011199235916138 C 39.554934442043304 9.011199235916138 38.022593796253204 9.011199235916138 38.022593796253204 9.011199235916138 C 38.022593796253204 9.011199235916138 35.55913984775543 2.0451545119285583 35.55913984775543 2.0451545119285583 C 35.33497351408005 1.4283332228660583 34.74732172489166 1.0181229710578918 34.09077399969101 1.0181229710578918 C 34.09077399969101 1.0181229710578918 29.539569556713104 1.0181229710578918 29.539569556713104 1.0181229710578918 C 29.008426010608673 1.0181229710578918 28.51461523771286 1.2873799204826355 28.226474106311798 1.7337320446968079 C 27.93935114145279 2.1803853511810303 27.89828509092331 2.7414879202842712 28.11837875843048 3.2245842814445496 C 28.11837875843048 3.2245842814445496 31.75085759162903 11.215251088142395 31.75085759162903 11.215251088142395 C 31.75085759162903 11.215251088142395 28.082403540611267 20.75158530473709 28.082403540611267 20.75158530473709 C 27.89709722995758 21.23076629638672 27.96209019422531 21.770786106586456 28.25226765871048 22.195754289627075 C 28.54431176185608 22.619517743587494 29.025904536247253 22.872812032699585 29.539569556713104 22.872812032699585 C 29.539569556713104 22.872812032699585 34.09077399969101 22.872812032699585 34.09077399969101 22.872812032699585 C 34.77718794345856 22.872812032699585 35.38231825828552 22.426158726215363 35.58391523361206 21.770484924316406 C 35.58391523361206 21.770484924316406 37.64604187011719 14.9426828622818 37.64604187011719 14.9426828622818 C 37.64604187011719 14.9426828622818 39.554934442043304 14.9426828622818 39.554934442043304 14.9426828622818 C 39.554934442043304 14.9426828622818 39.554934442043304 21.312085509300232 39.554934442043304 21.312085509300232 C 39.554934442043304 22.17406916618347 40.254584550857544 22.872812032699585 41.11680191755295 22.872812032699585 C 41.11680191755295 22.872812032699585 45.018925189971924 22.872812032699585 45.018925189971924 22.872812032699585 C 45.88114255666733 22.872812032699585 46.58096235990524 22.17406916618347 46.58096235990524 21.312085509300232 C 46.58096235990524 21.312085509300232 46.58096235990524 14.9426828622818 46.58096235990524 14.9426828622818 C 46.58096235990524 14.9426828622818 48.22021049261093 14.9426828622818 48.22021049261093 14.9426828622818 C 48.22021049261093 14.9426828622818 49.742199778556824 21.66205930709839 49.742199778556824 21.66205930709839 C 49.905615508556366 22.371042370796204 50.53653937578201 22.872812032699585 51.26300120353699 22.872812032699585 C 51.26300120353699 22.872812032699585 55.86172008514404 22.872812032699585 55.86172008514404 22.872812032699585 C 56.35654902458191 22.872812032699585 56.82269960641861 22.637889862060547 57.11711943149567 22.238220989704132 C 57.41136956214905 21.840660393238068 57.498931884765625 21.326241075992584 57.35265529155731 20.853384912014008 C 57.35265529155731 20.853384912014008 54.38503921031952 11.206516802310944 54.38503921031952 11.206516802310944 Z M 81.05404514074326 1.8626380562782288 C 81.0447119474411 1.845771849155426 81.03028792142868 1.832821011543274 81.0211244225502 1.8162559866905212 C 80.96767067909241 1.722287118434906 80.90793824195862 1.635546624660492 80.83683627843857 1.555432140827179 C 80.82037591934204 1.536758840084076 80.80713975429535 1.5165796279907227 80.7894915342331 1.4985086917877197 C 80.70311707258224 1.4090575575828552 80.60537308454514 1.3298466205596924 80.50050193071365 1.2626829743385315 C 80.47572654485703 1.247322678565979 80.44891482591629 1.2358777523040771 80.42430913448334 1.2217221856117249 C 80.3357286453247 1.1723282933235168 80.24528151750565 1.1328734159469604 80.14940416812897 1.1012492775917053 C 80.11546528339386 1.0907078981399536 80.08458089828491 1.0795641541481018 80.05081170797348 1.0711310505867004 C 79.92727416753769 1.0392057299613953 79.80068212747574 1.0181229710578918 79.66696292161942 1.0181229710578918 C 79.66696292161942 1.0181229710578918 75.76483964920044 1.0181229710578918 75.76483964920044 1.0181229710578918 C 75.64452630281448 1.0181229710578918 75.5293037891388 1.0346879959106445 75.41713577508926 1.0599873065948486 C 75.38506352901459 1.06781804561615 75.35316097736359 1.0798653364181519 75.32142812013626 1.0898043513298035 C 75.24319899082184 1.1129953861236572 75.16700619459152 1.1398006081581116 75.09301942586899 1.1747377514839172 C 75.05789268016815 1.19190514087677 75.02293562889099 1.2114819884300232 74.98899674415588 1.2310588359832764 C 74.92417347431183 1.2696101665496826 74.86138653755188 1.3114745020866394 74.80267226696014 1.358157753944397 C 74.77093940973282 1.382553517818451 74.73903685808182 1.407250463962555 74.7100191116333 1.4346580505371094 C 74.64536553621292 1.4948945045471191 74.58766943216324 1.5596486926078796 74.53404599428177 1.629824161529541 C 74.51979166269302 1.6460880041122437 74.50316160917282 1.6590388417243958 74.49094361066818 1.6765074133872986 C 74.49094361066818 1.6765074133872986 68.04204642772675 10.780645072460175 68.04204642772675 10.780645072460175 C 68.04204642772675 10.780645072460175 67.95991432666779 10.780645072460175 67.95991432666779 10.780645072460175 C 67.95991432666779 10.780645072460175 67.95991432666779 2.579451858997345 67.95991432666779 2.579451858997345 C 67.95991432666779 1.716564655303955 67.25890666246414 1.0181229710578918 66.39770746231079 1.0181229710578918 C 66.39770746231079 1.0181229710578918 62.49473571777344 1.0181229710578918 62.49473571777344 1.0181229710578918 C 61.63336682319641 1.0181229710578918 60.934734880924225 1.716564655303955 60.934734880924225 2.579451858997345 C 60.934734880924225 2.579451858997345 60.934734880924225 21.312085509300232 60.934734880924225 21.312085509300232 C 60.934734880924225 21.55513960123062 60.994467318058014 21.78283339738846 61.09526580572128 21.98944443464279 C 61.1013748049736 22.002395272254944 61.103580832481384 22.015948474407196 61.10952013731003 22.028296947479248 C 61.11783516407013 22.04456079006195 61.13225919008255 22.058113992214203 61.14057421684265 22.073775470256805 C 61.194027960300446 22.16834670305252 61.25579673051834 22.254786014556885 61.32571083307266 22.336105227470398 C 61.34217119216919 22.35447734594345 61.35540735721588 22.374957740306854 61.372037410736084 22.392125129699707 C 61.459430038928986 22.48247981071472 61.55734372138977 22.559883654117584 61.66221487522125 22.627348482608795 C 61.68597209453583 22.643612325191498 61.71363228559494 22.65475606918335 61.73942583799362 22.669212818145752 C 61.82681846618652 22.71710079908371 61.91743528842926 22.756856858730316 62.01314294338226 22.78878217935562 C 62.04708182811737 22.799925923347473 62.07898437976837 22.810467302799225 62.11088693141937 22.818900406360626 C 62.23544263839722 22.85172927379608 62.36186498403549 22.872812032699585 62.49473571777344 22.872812032699585 C 62.49473571777344 22.872812032699585 66.39770746231079 22.872812032699585 66.39770746231079 22.872812032699585 C 66.51819050312042 22.872812032699585 66.63341301679611 22.855945825576782 66.74558103084564 22.830646514892578 C 66.7785017490387 22.823418140411377 66.80938613414764 22.810467302799225 66.84128868579865 22.801130652427673 C 66.91951781511307 22.77763843536377 66.99554091691971 22.750833213329315 67.06867921352386 22.71589607000351 C 67.10465443134308 22.699029862880707 67.13859331607819 22.679151833057404 67.1725322008133 22.65897262096405 C 67.2383736371994 22.621023654937744 67.30116057395935 22.578858137130737 67.36089301109314 22.53277724981308 C 67.39177739620209 22.507176756858826 67.42266178131104 22.483684539794922 67.45252799987793 22.456879317760468 C 67.51633310317993 22.396642863750458 67.57487767934799 22.330683946609497 67.62850111722946 22.261110842227936 C 67.64173728227615 22.244846999645233 67.65938550233841 22.23159497976303 67.67177319526672 22.214126408100128 C 67.67177319526672 22.214126408100128 74.11235535144806 13.120530128479004 74.11235535144806 13.120530128479004 C 74.11235535144806 13.120530128479004 74.20280247926712 13.120530128479004 74.20280247926712 13.120530128479004 C 74.20280247926712 13.120530128479004 74.20280247926712 21.312085509300232 74.20280247926712 21.312085509300232 C 74.20280247926712 22.17406916618347 74.90262228250504 22.872812032699585 75.76483964920044 22.872812032699585 C 75.76483964920044 22.872812032699585 79.66696292161942 22.872812032699585 79.66696292161942 22.872812032699585 C 80.52918028831482 22.872812032699585 81.22798192501068 22.17406916618347 81.22798192501068 21.312085509300232 C 81.22798192501068 21.312085509300232 81.22798192501068 2.579451858997345 81.22798192501068 2.579451858997345 C 81.22798192501068 2.3348918557167053 81.16723132133484 2.1071980595588684 81.06728130578995 1.901490569114685 C 81.06032383441925 1.888539731502533 81.06032383441925 1.8746853470802307 81.05404514074326 1.8626380562782288 Z M 103.08207827806473 1.0181229710578918 C 103.08207827806473 1.0181229710578918 99.17995500564575 1.0181229710578918 99.17995500564575 1.0181229710578918 C 98.31773763895035 1.0181229710578918 97.61910569667816 1.716564655303955 97.61910569667816 2.579451858997345 C 97.61910569667816 2.579451858997345 97.61910569667816 8.948252141475677 97.61910569667816 8.948252141475677 C 97.61910569667816 8.948252141475677 92.15494525432587 8.948252141475677 92.15494525432587 8.948252141475677 C 92.15494525432587 8.948252141475677 92.15494525432587 2.579451858997345 92.15494525432587 2.579451858997345 C 92.15494525432587 1.716564655303955 91.45631331205368 1.0181229710578918 90.59511411190033 1.0181229710578918 C 90.59511411190033 1.0181229710578918 86.69095450639725 1.0181229710578918 86.69095450639725 1.0181229710578918 C 85.82958561182022 1.0181229710578918 85.12993550300598 1.716564655303955 85.12993550300598 2.579451858997345 C 85.12993550300598 2.579451858997345 85.12993550300598 21.312085509300232 85.12993550300598 21.312085509300232 C 85.12993550300598 22.17406916618347 85.82958561182022 22.872812032699585 86.69095450639725 22.872812032699585 C 86.69095450639725 22.872812032699585 90.59511411190033 22.872812032699585 90.59511411190033 22.872812032699585 C 91.45631331205368 22.872812032699585 92.15494525432587 22.17406916618347 92.15494525432587 21.312085509300232 C 92.15494525432587 21.312085509300232 92.15494525432587 14.9426828622818 92.15494525432587 14.9426828622818 C 92.15494525432587 14.9426828622818 97.61910569667816 14.9426828622818 97.61910569667816 14.9426828622818 C 97.61910569667816 14.9426828622818 97.61910569667816 21.312085509300232 97.61910569667816 21.312085509300232 C 97.61910569667816 22.17406916618347 98.31773763895035 22.872812032699585 99.17995500564575 22.872812032699585 C 99.17995500564575 22.872812032699585 103.08207827806473 22.872812032699585 103.08207827806473 22.872812032699585 C 103.94446533918381 22.872812032699585 104.64326697587967 22.17406916618347 104.64326697587967 21.312085509300232 C 104.64326697587967 21.312085509300232 104.64326697587967 2.579451858997345 104.64326697587967 2.579451858997345 C 104.64326697587967 1.716564655303955 103.94446533918381 1.0181229710578918 103.08207827806473 1.0181229710578918 Z M 23.541380763053894 16.628098845481873 C 23.541380763053894 16.628098845481873 23.541380763053894 2.579451858997345 23.541380763053894 2.579451858997345 C 23.541380763053894 1.716564655303955 22.843597292900085 1.0181229710578918 21.98137992620468 1.0181229710578918 C 21.98137992620468 1.0181229710578918 7.931190729141235 1.0181229710578918 7.931190729141235 1.0181229710578918 C 7.069821834564209 1.0181229710578918 6.3701717257499695 1.716564655303955 6.3701717257499695 2.579451858997345 C 6.3701717257499695 2.579451858997345 4.029237151145935 16.628098845481873 4.029237151145935 16.628098845481873 C 4.029237151145935 16.628098845481873 2.56171977519989 16.628098845481873 2.56171977519989 16.628098845481873 C 1.699502408504486 16.628098845481873 1.0007007718086243 17.327745258808136 1.0007007718086243 18.189126551151276 C 1.0007007718086243 18.189126551151276 1.0007007718086243 25.43376487493515 1.0007007718086243 25.43376487493515 C 1.0007007718086243 26.29574853181839 1.699502408504486 26.994792580604553 2.56171977519989 26.994792580604553 C 2.56171977519989 26.994792580604553 6.3701717257499695 26.994792580604553 6.3701717257499695 26.994792580604553 C 7.2323890924453735 26.994792580604553 7.931190729141235 26.29574853181839 7.931190729141235 25.43376487493515 C 7.931190729141235 25.43376487493515 7.931190729141235 22.872812032699585 7.931190729141235 22.872812032699585 C 7.931190729141235 22.872812032699585 18.85934191942215 22.872812032699585 18.85934191942215 22.872812032699585 C 18.85934191942215 22.872812032699585 18.85934191942215 25.43376487493515 18.85934191942215 25.43376487493515 C 18.85934191942215 26.29574853181839 19.557973861694336 26.994792580604553 20.420360922813416 26.994792580604553 C 20.420360922813416 26.994792580604553 23.541380763053894 26.994792580604553 23.541380763053894 26.994792580604553 C 24.404785990715027 26.994792580604553 25.103417932987213 26.29574853181839 25.103417932987213 25.43376487493515 C 25.103417932987213 25.43376487493515 25.103417932987213 18.189126551151276 25.103417932987213 18.189126551151276 C 25.103417932987213 17.327745258808136 24.404785990715027 16.628098845481873 23.541380763053894 16.628098845481873 Z M 17.01747864484787 17.012708604335785 C 17.01747864484787 17.012708604335785 10.676507115364075 17.003371953964233 10.676507115364075 17.003371953964233 C 10.676507115364075 17.003371953964233 12.200532734394073 7.262534976005554 12.200532734394073 7.262534976005554 C 12.200532734394073 7.262534976005554 17.01747864484787 7.262534976005554 17.01747864484787 7.262534976005554 C 17.01747864484787 7.262534976005554 17.01747864484787 17.012708604335785 17.01747864484787 17.012708604335785 Z M 118.69328647851944 1.0024614930152893 C 112.250667989254 1.0024614930152893 107.7507112622261 5.501823425292969 107.7507112622261 11.945015728473663 C 107.7507112622261 18.387906849384308 112.250667989254 22.888172328472137 118.69328647851944 22.888172328472137 C 125.13590496778488 22.888172328472137 129.63586169481277 18.387906849384308 129.63586169481277 11.945015728473663 C 129.63586169481277 5.501823425292969 125.13590496778488 1.0024614930152893 118.69328647851944 1.0024614930152893 Z M 118.69328647851944 16.633821308612823 C 115.71328270435333 16.633821308612823 114.00310230255127 14.924611926078796 114.00310230255127 11.945015728473663 C 114.00310230255127 8.96511834859848 115.71328270435333 7.254704236984253 118.69328647851944 7.254704236984253 C 121.67329025268555 7.254704236984253 123.38364034891129 8.96511834859848 123.38364034891129 11.945015728473663 C 123.38364034891129 14.924611926078796 121.67329025268555 16.633821308612823 118.69328647851944 16.633821308612823 Z"/></g></svg>